<?xml version="1.0" encoding="UTF-8"?>
<svg width="62px" height="62px" viewBox="0 0 62 62" version="1.1" xmlns="http://www.w3.org/2000/svg" xmlns:xlink="http://www.w3.org/1999/xlink">
    <!-- Generator: Sketch 52.5 (67469) - http://www.bohemiancoding.com/sketch -->
    <title>Group</title>
    <desc>Created with Sketch.</desc>
    <g id="Page-1" stroke="none" stroke-width="1" fill="none" fill-rule="evenodd">
        <g id="Gracias-Desktop-Suzuki" transform="translate(-254.000000, -168.000000)">
            <g id="Group" transform="translate(254.000000, 168.000000)">
                <path d="M31,62 C13.8791728,62 0,48.1208272 0,31 C0,13.8791728 13.8791728,0 31,0 C48.1208272,0 62,13.8791728 62,31 C62,48.1208272 48.1208272,62 31,62 Z M27.4367191,38.542406 L17.1502889,28.2390574 C15.9702068,27.0570343 14.0617194,27.0567406 12.8847811,28.2356148 C11.6996373,29.4227078 11.7093814,31.3273628 12.888218,32.5081382 L25.4724964,45.1131145 C25.8992445,45.5405646 26.4212486,45.8134761 26.9694659,45.9319701 C27.9384337,46.1408337 28.9871088,45.8686875 29.7380043,45.116557 C29.9549371,44.8992674 48.0500181,22.7042407 48.0500181,22.7042407 C49.5773278,20.8260948 49.6560921,18.7234591 48.3814745,17.7363119 C47.1068569,16.7491648 45.3218272,16.5489343 43.7879472,18.4351598 L27.4367191,38.542406 Z" id="Combined-Shape" fill="#5EB300"></path>
                <g id="ok-check" transform="translate(12.000000, 17.000000)"></g>
            </g>
        </g>
    </g>
</svg>