<?xml version="1.0" encoding="UTF-8"?>
<svg width="23px" height="23px" viewBox="0 0 23 23" version="1.1" xmlns="http://www.w3.org/2000/svg" xmlns:xlink="http://www.w3.org/1999/xlink">
    <!-- Generator: Sketch 52.5 (67469) - http://www.bohemiancoding.com/sketch -->
    <title>Group 16</title>
    <desc>Created with Sketch.</desc>
    <g id="Page-1" stroke="none" stroke-width="1" fill="none" fill-rule="evenodd">
        <g id="Gracias-Desktop-Suzuki" transform="translate(-336.000000, -663.000000)">
            <g id="Group-16" transform="translate(336.000000, 663.000000)">
                <circle id="Oval" fill="#C50D0F" cx="11.5" cy="11.5" r="11.5"></circle>
                <path d="M17.2777778,14.3333333 C16.4111111,14.3333333 15.5444444,14.2 14.6777778,13.9333333 C14.4611111,13.8666667 14.1721939,13.9333333 13.9555556,14.0666667 L12.3666667,15.5333333 C10.3444728,14.6 8.68333333,13 7.6,11.1333333 L9.18888889,9.66666667 C9.40555556,9.46666667 9.47777778,9.2 9.33333333,9 C9.11666667,8.26666667 8.97222222,7.46666667 8.97222222,6.66666667 C8.97222222,6.26666667 8.68333333,6 8.25,6 L5.72222222,6 C5.28888889,6 5,6.26666667 5,6.66666667 C5,12.9333333 10.4888889,18 17.2777778,18 C17.7111111,18 18,17.7333333 18,17.3333333 L18,15 C18,14.6 17.7111111,14.3333333 17.2777778,14.3333333 Z" id="Shape" fill="#FFFFFF" fill-rule="nonzero"></path>
            </g>
        </g>
    </g>
</svg>