<svg xmlns="http://www.w3.org/2000/svg" fill="none" viewBox="0 0 285 49">
  <defs/>
  <path fill="#E6E6E6" d="M0 24.5C0 10.969 10.969 0 24.5 0H151v49H24.5C10.969 49 0 38.031 0 24.5z"/>
  <path stroke="#E6E6E6" stroke-width="3" d="M283.5 24.5c0-12.703-10.297-23-23-23h-108v46h108c12.703 0 23-10.297 23-23z"/>
  <path fill="#4D4D4D" d="M39.032 25.475v5.265a6.967 6.967 0 01-2.114 1.071 8.334 8.334 0 01-2.395.333c-1.062 0-2.025-.165-2.889-.495a6.515 6.515 0 01-2.204-1.377 6.063 6.063 0 01-1.404-2.106c-.33-.816-.495-1.707-.495-2.673 0-.978.159-1.875.477-2.691a6.104 6.104 0 011.35-2.106 6.093 6.093 0 012.133-1.368c.834-.324 1.77-.486 2.807-.486.529 0 1.02.042 1.477.126.462.084.888.201 1.278.351a5.32 5.32 0 011.08.531c.323.21.62.441.89.693l-.693 1.098a.68.68 0 01-.422.324c-.175.036-.364-.009-.568-.135l-.594-.342a3.78 3.78 0 00-.666-.297 5.251 5.251 0 00-.819-.207 5.952 5.952 0 00-1.044-.081c-.642 0-1.224.108-1.745.324a3.693 3.693 0 00-1.324.927 4.178 4.178 0 00-.846 1.449 5.678 5.678 0 00-.296 1.89c0 .744.104 1.41.314 1.998.216.582.517 1.077.9 1.485.39.402.858.711 1.404.927.546.21 1.155.315 1.828.315.48 0 .909-.051 1.287-.153.378-.102.747-.24 1.107-.414v-2.358h-1.638a.52.52 0 01-.37-.126.458.458 0 01-.126-.324v-1.368h4.32zm6.825 2.583c-.642.03-1.182.087-1.62.171-.438.078-.79.18-1.053.306-.264.126-.453.273-.567.441a.958.958 0 00-.171.549c0 .39.114.669.342.837.234.168.537.252.909.252.456 0 .849-.081 1.179-.243.336-.168.663-.42.98-.756v-1.557zm-5.094-4.005c1.062-.972 2.34-1.458 3.834-1.458.54 0 1.023.09 1.449.27.426.174.786.42 1.08.738.294.312.516.687.666 1.125.156.438.234.918.234 1.44V32h-1.008c-.21 0-.372-.03-.486-.09-.114-.066-.204-.195-.27-.387l-.198-.666c-.234.21-.462.396-.684.558a4.205 4.205 0 01-.693.396c-.24.108-.498.189-.774.243-.27.06-.57.09-.9.09-.39 0-.75-.051-1.08-.153a2.428 2.428 0 01-.855-.477 2.121 2.121 0 01-.558-.783 2.778 2.778 0 01-.198-1.089 2.128 2.128 0 01.495-1.359c.18-.21.41-.408.693-.594a4.494 4.494 0 011.035-.486 8.827 8.827 0 011.44-.333c.546-.09 1.17-.144 1.872-.162v-.54c0-.618-.132-1.074-.396-1.368-.264-.3-.645-.45-1.143-.45-.36 0-.66.042-.9.126-.234.084-.441.18-.621.288l-.495.279a.947.947 0 01-.486.126.658.658 0 01-.396-.117 1.074 1.074 0 01-.261-.288l-.396-.711zm11.454.315c.288-.552.63-.984 1.026-1.296a2.174 2.174 0 011.404-.477c.425 0 .767.093 1.026.279l-.145 1.665a.44.44 0 01-.134.234.358.358 0 01-.225.063c-.09 0-.225-.015-.405-.045a3.016 3.016 0 00-.514-.045c-.245 0-.465.036-.657.108a1.664 1.664 0 00-.522.315 2.18 2.18 0 00-.404.486 5.16 5.16 0 00-.325.657V32H50.12v-9.234h1.305c.228 0 .387.042.477.126.09.078.15.222.18.432l.135 1.044zm9.372 3.69c-.642.03-1.182.087-1.62.171-.438.078-.789.18-1.053.306-.264.126-.453.273-.567.441a.958.958 0 00-.17.549c0 .39.113.669.341.837.234.168.537.252.91.252.455 0 .848-.081 1.178-.243.336-.168.663-.42.981-.756v-1.557zm-5.094-4.005c1.062-.972 2.34-1.458 3.834-1.458.54 0 1.023.09 1.45.27.425.174.785.42 1.08.738.293.312.515.687.665 1.125.156.438.234.918.234 1.44V32H62.75c-.21 0-.372-.03-.486-.09-.114-.066-.204-.195-.27-.387l-.198-.666c-.234.21-.462.396-.684.558a4.205 4.205 0 01-.693.396c-.24.108-.498.189-.774.243-.27.06-.57.09-.9.09-.39 0-.75-.051-1.08-.153a2.428 2.428 0 01-.855-.477 2.121 2.121 0 01-.558-.783 2.778 2.778 0 01-.198-1.089 2.128 2.128 0 01.495-1.359c.18-.21.411-.408.693-.594a4.494 4.494 0 011.035-.486 8.827 8.827 0 011.44-.333c.546-.09 1.17-.144 1.872-.162v-.54c0-.618-.132-1.074-.396-1.368-.264-.3-.645-.45-1.143-.45-.36 0-.66.042-.9.126-.234.084-.44.18-.62.288l-.496.279a.947.947 0 01-.486.126.658.658 0 01-.396-.117 1.074 1.074 0 01-.26-.288l-.397-.711zm11.436-.153c.186-.186.38-.357.585-.513a3.593 3.593 0 011.404-.666c.264-.066.552-.099.864-.099.504 0 .95.087 1.34.261.39.168.715.408.973.72.264.306.462.675.594 1.107.138.426.207.897.207 1.413V32h-2.223v-5.877c0-.564-.13-.999-.387-1.305-.258-.312-.651-.468-1.18-.468-.383 0-.743.087-1.08.261a3.87 3.87 0 00-.953.711V32h-2.223v-9.234h1.359c.288 0 .477.135.567.405l.153.729zM85.195 32h-2.223v-7.569h-4.284v5.004c0 .288.069.513.207.675.144.162.339.243.585.243.138 0 .252-.015.342-.045.096-.036.177-.072.243-.108.072-.036.135-.069.189-.099a.29.29 0 01.162-.054.24.24 0 01.162.054c.042.03.087.078.135.144l.666 1.08c-.324.27-.696.474-1.116.612-.42.138-.855.207-1.305.207-.804 0-1.422-.225-1.854-.675-.426-.456-.639-1.083-.639-1.881v-5.157h-.945a.433.433 0 01-.306-.117c-.084-.078-.126-.195-.126-.351v-.882l1.485-.252.468-2.511a.494.494 0 01.171-.279.509.509 0 01.324-.099h1.152v2.907h6.507V32zm2.07-13.158l-2.223 2.349c-.114.12-.225.204-.333.252a1.082 1.082 0 01-.405.063h-1.332l1.278-2.187c.09-.156.195-.273.315-.351.12-.084.3-.126.54-.126h2.16zm5.068 9.216c-.642.03-1.182.087-1.62.171-.438.078-.789.18-1.053.306-.264.126-.453.273-.567.441a.958.958 0 00-.17.549c0 .39.113.669.341.837.234.168.537.252.91.252.455 0 .848-.081 1.178-.243.336-.168.663-.42.981-.756v-1.557zm-5.094-4.005c1.062-.972 2.34-1.458 3.834-1.458.54 0 1.023.09 1.45.27.425.174.785.42 1.08.738.293.312.515.687.665 1.125.156.438.234.918.234 1.44V32h-1.008c-.21 0-.372-.03-.486-.09-.114-.066-.204-.195-.27-.387l-.198-.666c-.234.21-.462.396-.684.558a4.205 4.205 0 01-.693.396c-.24.108-.498.189-.774.243-.27.06-.57.09-.9.09-.39 0-.75-.051-1.08-.153a2.428 2.428 0 01-.855-.477 2.121 2.121 0 01-.558-.783 2.778 2.778 0 01-.198-1.089 2.128 2.128 0 01.495-1.359c.18-.21.411-.408.693-.594a4.494 4.494 0 011.035-.486 8.827 8.827 0 011.44-.333c.546-.09 1.17-.144 1.872-.162v-.54c0-.618-.132-1.074-.396-1.368-.264-.3-.645-.45-1.143-.45-.36 0-.66.042-.9.126-.234.084-.44.18-.62.288l-.496.279a.947.947 0 01-.486.126.658.658 0 01-.396-.117 1.074 1.074 0 01-.26-.288l-.397-.711zm18.315 1.476c.444 0 .831-.054 1.161-.162.33-.114.603-.273.819-.477.222-.21.387-.462.495-.756.108-.3.162-.633.162-.999 0-.348-.054-.663-.162-.945a1.868 1.868 0 00-.486-.72 2.116 2.116 0 00-.819-.45 3.774 3.774 0 00-1.17-.162h-1.809v4.671h1.809zm0-6.543c.87 0 1.623.102 2.259.306.636.204 1.161.489 1.575.855.414.366.72.804.918 1.314.204.51.306 1.068.306 1.674a4.66 4.66 0 01-.315 1.737c-.21.522-.525.972-.945 1.35-.42.378-.948.672-1.584.882-.63.21-1.368.315-2.214.315h-1.809V32h-2.421V18.986h4.23zm11.16 9.072c-.642.03-1.182.087-1.62.171-.438.078-.789.18-1.053.306-.264.126-.453.273-.567.441a.958.958 0 00-.171.549c0 .39.114.669.342.837.234.168.537.252.909.252.456 0 .849-.081 1.179-.243.336-.168.663-.42.981-.756v-1.557zm-5.094-4.005c1.062-.972 2.34-1.458 3.834-1.458.54 0 1.023.09 1.449.27.426.174.786.42 1.08.738.294.312.516.687.666 1.125.156.438.234.918.234 1.44V32h-1.008c-.21 0-.372-.03-.486-.09-.114-.066-.204-.195-.27-.387l-.198-.666c-.234.21-.462.396-.684.558a4.205 4.205 0 01-.693.396c-.24.108-.498.189-.774.243-.27.06-.57.09-.9.09-.39 0-.75-.051-1.08-.153a2.428 2.428 0 01-.855-.477 2.121 2.121 0 01-.558-.783 2.778 2.778 0 01-.198-1.089 2.128 2.128 0 01.495-1.359c.18-.21.411-.408.693-.594a4.494 4.494 0 011.035-.486 8.827 8.827 0 011.44-.333c.546-.09 1.17-.144 1.872-.162v-.54c0-.618-.132-1.074-.396-1.368-.264-.3-.645-.45-1.143-.45-.36 0-.66.042-.9.126-.234.084-.441.18-.621.288l-.495.279a.947.947 0 01-.486.126.658.658 0 01-.396-.117 1.074 1.074 0 01-.261-.288l-.396-.711zm11.661-1.287V32h-2.232v-9.234h2.232zm.306-2.691c0 .192-.039.372-.117.54a1.445 1.445 0 01-.315.441 1.492 1.492 0 01-.45.306c-.174.072-.36.108-.558.108-.192 0-.375-.036-.549-.108a1.527 1.527 0 01-.747-.747 1.445 1.445 0 010-1.098c.078-.174.18-.324.306-.45s.273-.225.441-.297c.174-.078.357-.117.549-.117.198 0 .384.039.558.117.174.072.324.171.45.297.132.126.237.276.315.45.078.174.117.36.117.558zm7.594 4.491a.643.643 0 01-.189.207.523.523 0 01-.252.054.822.822 0 01-.351-.09c-.12-.06-.261-.126-.423-.198a3.515 3.515 0 00-.558-.207 2.602 2.602 0 00-.729-.09c-.438 0-.783.093-1.035.279a.872.872 0 00-.369.729.72.72 0 00.189.504c.132.132.303.249.513.351.216.102.459.195.729.279.27.078.543.165.819.261.282.096.558.207.828.333.27.12.51.276.72.468.216.186.387.411.513.675.132.264.198.582.198.954 0 .444-.081.855-.243 1.233-.156.372-.39.696-.702.972-.312.27-.699.483-1.161.639-.456.15-.984.225-1.584.225-.318 0-.63-.03-.936-.09a5.087 5.087 0 01-1.647-.594 3.841 3.841 0 01-.621-.45l.513-.846a.726.726 0 01.234-.234.656.656 0 01.342-.081c.138 0 .267.039.387.117.126.078.27.162.432.252.162.09.351.174.567.252.222.078.501.117.837.117.264 0 .489-.03.675-.09.192-.066.348-.15.468-.252a.88.88 0 00.27-.351c.06-.138.09-.279.09-.423a.737.737 0 00-.198-.531 1.622 1.622 0 00-.513-.36 4.431 4.431 0 00-.729-.27c-.27-.084-.549-.174-.837-.27a8.994 8.994 0 01-.837-.333 3.063 3.063 0 01-.729-.495 2.312 2.312 0 01-.513-.729c-.126-.288-.189-.636-.189-1.044 0-.378.075-.738.225-1.08.15-.342.369-.639.657-.891a3.24 3.24 0 011.089-.612c.438-.156.942-.234 1.512-.234.636 0 1.215.105 1.737.315.522.21.957.486 1.305.828l-.504.801zm2.132 6.21c0-.186.033-.363.099-.531.072-.168.168-.312.288-.432.12-.12.264-.216.432-.288.168-.072.348-.108.54-.108.192 0 .369.036.531.108.168.072.312.168.432.288a1.334 1.334 0 01.405.963c0 .192-.036.372-.108.54a1.316 1.316 0 01-.297.423c-.12.12-.264.213-.432.279a1.293 1.293 0 01-.531.108c-.192 0-.372-.036-.54-.108a1.248 1.248 0 01-.432-.279 1.39 1.39 0 01-.288-.423 1.463 1.463 0 01-.099-.54zm0-6.417c0-.186.033-.363.099-.531.072-.168.168-.312.288-.432.12-.12.264-.216.432-.288.168-.072.348-.108.54-.108.192 0 .369.036.531.108.168.072.312.168.432.288a1.334 1.334 0 01.405.963c0 .192-.036.372-.108.54a1.316 1.316 0 01-.297.423c-.12.12-.264.216-.432.288a1.394 1.394 0 01-.531.099c-.192 0-.372-.033-.54-.099a1.362 1.362 0 01-.72-.711 1.463 1.463 0 01-.099-.54z"/>
  <rect width="39.9" height="23.9" x="218.05" y="13.05" fill="#FF4E4E" stroke="#FF6969" stroke-width=".1" rx="7.95"/>
  <path fill="#fff" stroke="#FF6969" stroke-width=".1" d="M231.05 13.05h13.9v23.9h-13.9z"/>
  <path fill="#4B4B4B" d="M177.466 25.529c.444 0 .831-.054 1.161-.162.33-.114.603-.273.819-.477.222-.21.387-.462.495-.756.108-.3.162-.633.162-.999 0-.348-.054-.663-.162-.945a1.868 1.868 0 00-.486-.72 2.116 2.116 0 00-.819-.45 3.774 3.774 0 00-1.17-.162h-1.809v4.671h1.809zm0-6.543c.87 0 1.623.102 2.259.306.636.204 1.161.489 1.575.855.414.366.72.804.918 1.314.204.51.306 1.068.306 1.674a4.66 4.66 0 01-.315 1.737c-.21.522-.525.972-.945 1.35-.42.378-.948.672-1.584.882-.63.21-1.368.315-2.214.315h-1.809V32h-2.421V18.986h4.23zm12.091 7.335c0-.288-.042-.558-.126-.81a1.874 1.874 0 00-.36-.675 1.644 1.644 0 00-.621-.45 2.037 2.037 0 00-.864-.171c-.642 0-1.149.183-1.521.549-.366.366-.6.885-.702 1.557h4.194zm-4.239 1.341c.036.474.12.885.252 1.233.132.342.306.627.522.855.216.222.471.39.765.504.3.108.63.162.99.162s.669-.042.927-.126a4.14 4.14 0 00.684-.279c.198-.102.369-.195.513-.279a.885.885 0 01.432-.126c.186 0 .324.069.414.207l.639.81a3.804 3.804 0 01-.828.729 4.922 4.922 0 01-.963.468c-.33.114-.669.195-1.017.243a7.186 7.186 0 01-.999.072 4.995 4.995 0 01-1.791-.315 4.09 4.09 0 01-1.44-.945 4.49 4.49 0 01-.963-1.548c-.234-.618-.351-1.332-.351-2.142 0-.63.102-1.221.306-1.773a4.254 4.254 0 01.873-1.449 4.16 4.16 0 011.395-.981c.552-.24 1.173-.36 1.863-.36a4.52 4.52 0 011.611.279c.492.186.915.459 1.269.819.354.354.63.792.828 1.314.204.516.306 1.107.306 1.773 0 .336-.036.564-.108.684-.072.114-.21.171-.414.171h-5.715zm10.002-3.294c.288-.552.63-.984 1.026-1.296a2.174 2.174 0 011.404-.477c.426 0 .768.093 1.026.279l-.144 1.665a.44.44 0 01-.135.234.358.358 0 01-.225.063c-.09 0-.225-.015-.405-.045a3.016 3.016 0 00-.513-.045c-.246 0-.465.036-.657.108a1.664 1.664 0 00-.522.315 2.18 2.18 0 00-.405.486 5.16 5.16 0 00-.324.657V32h-2.223v-9.234h1.305c.228 0 .387.042.477.126.09.078.15.222.18.432l.135 1.044zm12.574-1.602V32h-1.359c-.294 0-.48-.135-.558-.405l-.153-.738a5.052 5.052 0 01-1.251.936c-.456.234-.993.351-1.611.351-.504 0-.951-.084-1.341-.252a2.732 2.732 0 01-.972-.729 3.236 3.236 0 01-.603-1.107 4.849 4.849 0 01-.198-1.422v-5.868h2.223v5.868c0 .564.129 1.002.387 1.314.264.306.657.459 1.179.459.384 0 .744-.084 1.08-.252a3.87 3.87 0 00.954-.711v-6.678h2.223zm-.864-3.924l-2.223 2.349c-.114.12-.225.204-.333.252a1.082 1.082 0 01-.405.063h-1.332l1.278-2.187c.09-.156.195-.273.315-.351.12-.084.3-.126.54-.126h2.16z"/>
</svg>
