<svg xmlns="http://www.w3.org/2000/svg" fill="none" viewBox="0 0 102 12">
  <defs/>
  <path fill="#fff" d="M2.265 2.922V9H1.197V2.922h1.068zm.228-1.908a.673.673 0 01-.066.294.815.815 0 01-.168.24.753.753 0 01-.246.162.73.73 0 01-.294.06.73.73 0 01-.528-.222.875.875 0 01-.162-.24.73.73 0 01-.06-.294.73.73 0 01.06-.294.753.753 0 01.162-.246.742.742 0 01.234-.168.73.73 0 01.294-.06.73.73 0 01.294.06c.096.04.178.096.246.168.072.068.128.15.168.246.044.092.066.19.066.294zm2.561 2.79c.132-.148.272-.282.42-.402.148-.12.304-.222.468-.306a2.443 2.443 0 011.134-.27c.332 0 .624.056.876.168.256.108.468.264.636.468.172.2.302.442.39.726.088.284.132.598.132.942V9H8.036V5.13c0-.46-.106-.816-.318-1.068-.208-.256-.526-.384-.954-.384-.316 0-.612.076-.888.228a2.936 2.936 0 00-.756.618V9H4.046V2.922h.642c.152 0 .246.074.282.222l.084.66zM11.066 9V3.834l-.672-.078a.595.595 0 01-.21-.09.23.23 0 01-.078-.186v-.438h.96v-.588c0-.348.048-.656.144-.924.1-.272.24-.5.42-.684a1.79 1.79 0 01.66-.426c.256-.096.544-.144.864-.144.272 0 .522.04.75.12L13.88.93c-.008.096-.062.148-.162.156a4.947 4.947 0 01-.39.012c-.184 0-.352.024-.504.072a.949.949 0 00-.384.234c-.108.108-.192.25-.252.426a2.184 2.184 0 00-.084.654v.558h1.752v.774H12.14V9h-1.074zm6.2-6.174a3.1 3.1 0 011.2.222c.357.148.66.358.913.63.252.272.444.602.576.99.136.384.204.814.204 1.29 0 .48-.068.912-.204 1.296a2.735 2.735 0 01-.576.984 2.572 2.572 0 01-.912.63 3.175 3.175 0 01-1.2.216c-.448 0-.852-.072-1.212-.216a2.572 2.572 0 01-.912-.63 2.805 2.805 0 01-.582-.984 3.972 3.972 0 01-.198-1.296c0-.476.066-.906.198-1.29.136-.388.33-.718.582-.99.252-.272.556-.482.912-.63.36-.148.764-.222 1.212-.222zm0 5.424c.6 0 1.049-.2 1.345-.6.296-.404.444-.966.444-1.686 0-.724-.148-1.288-.444-1.692-.296-.404-.744-.606-1.344-.606-.304 0-.57.052-.798.156a1.507 1.507 0 00-.564.45c-.148.196-.26.438-.336.726a3.941 3.941 0 00-.108.966c0 .72.148 1.282.444 1.686.3.4.754.6 1.362.6zm9.758-4.182a2.296 2.296 0 00-.516-.054c-.3 0-.576.064-.828.192a2.1 2.1 0 00-.642.492 2.27 2.27 0 00-.576 1.512c0 .288.066.52.198.696.132.172.328.258.588.258.124 0 .248-.02.372-.06.128-.04.25-.11.366-.21.12-.1.23-.236.33-.408s.184-.388.252-.648l.456-1.77zm.372 1.674c-.08.304-.118.552-.114.744.004.188.034.336.09.444.06.108.142.182.246.222a1.04 1.04 0 00.9-.114c.176-.112.33-.27.462-.474.136-.204.242-.448.318-.732.08-.288.12-.606.12-.954 0-.552-.088-1.036-.264-1.452a2.838 2.838 0 00-.732-1.038 2.946 2.946 0 00-1.098-.624c-.42-.14-.874-.21-1.362-.21-.536 0-1.038.102-1.506.306a3.791 3.791 0 00-1.224.846c-.348.36-.624.786-.828 1.278a4.23 4.23 0 00-.3 1.608c0 .68.106 1.278.318 1.794.216.512.508.942.876 1.29.372.348.808.61 1.308.786.5.176 1.036.264 1.608.264.608 0 1.144-.066 1.608-.198.468-.132.872-.3 1.212-.504.08-.048.15-.062.21-.042.06.016.104.06.132.132l.156.396a5.446 5.446 0 01-1.47.678c-.544.164-1.16.246-1.848.246-.696 0-1.342-.11-1.938-.33a4.503 4.503 0 01-1.554-.954 4.402 4.402 0 01-1.032-1.518c-.248-.6-.372-1.28-.372-2.04 0-.436.054-.856.162-1.26a4.857 4.857 0 011.188-2.088c.28-.292.592-.54.936-.744a4.503 4.503 0 011.11-.48c.4-.116.816-.174 1.248-.174.368 0 .728.04 1.08.12.352.08.684.198.996.354.316.156.604.35.864.582A3.633 3.633 0 0130.03 3.69c.108.364.162.76.162 1.188 0 .432-.062.832-.186 1.2-.12.364-.288.68-.504.948a2.327 2.327 0 01-.756.63 2.01 2.01 0 01-.942.228c-.304 0-.556-.074-.756-.222-.196-.152-.322-.382-.378-.69-.228.32-.478.55-.75.69a1.9 1.9 0 01-.882.21c-.236 0-.444-.04-.624-.12a1.238 1.238 0 01-.438-.342 1.566 1.566 0 01-.264-.522 2.395 2.395 0 01-.084-.648c0-.34.064-.682.192-1.026.132-.348.326-.66.582-.936.256-.28.574-.508.954-.684.38-.176.82-.264 1.32-.264.268 0 .504.022.708.066.204.04.396.1.576.18l-.564 2.166zm8.174-1.374c-.2-.268-.416-.454-.648-.558a1.826 1.826 0 00-.78-.162c-.564 0-.998.202-1.302.606-.304.404-.456.98-.456 1.728 0 .396.034.736.102 1.02.068.28.168.512.3.696.132.18.294.312.486.396.192.084.41.126.654.126.352 0 .658-.08.918-.24.264-.16.506-.386.726-.678V4.368zM36.638.162V9h-.636c-.152 0-.248-.074-.288-.222l-.096-.738a3.31 3.31 0 01-.888.756 2.26 2.26 0 01-1.152.288c-.348 0-.664-.066-.948-.198a1.994 1.994 0 01-.726-.594c-.2-.26-.354-.584-.462-.972a5.004 5.004 0 01-.162-1.338c0-.448.06-.864.18-1.248.12-.388.292-.724.516-1.008.224-.284.498-.506.822-.666a2.434 2.434 0 011.104-.246c.372 0 .69.064.954.192.268.124.506.298.714.522V.162h1.068zm5.781 5.136c0-.248-.036-.474-.108-.678a1.437 1.437 0 00-.306-.534 1.292 1.292 0 00-.486-.348 1.616 1.616 0 00-.654-.126c-.512 0-.918.15-1.218.45-.296.296-.48.708-.552 1.236h3.324zm.864 2.85c-.132.16-.29.3-.474.42a3.022 3.022 0 01-.594.288 3.503 3.503 0 01-.648.168c-.224.04-.446.06-.666.06-.42 0-.808-.07-1.164-.21a2.636 2.636 0 01-.918-.624 2.919 2.919 0 01-.6-1.02 4.135 4.135 0 01-.216-1.392c0-.424.064-.82.192-1.188.132-.368.32-.686.564-.954.244-.272.542-.484.894-.636a2.902 2.902 0 011.188-.234c.364 0 .7.062 1.008.186.312.12.58.296.804.528.228.228.406.512.534.852.128.336.192.72.192 1.152 0 .168-.018.28-.054.336-.036.056-.104.084-.204.084H39.06c.012.384.064.718.156 1.002.096.284.228.522.396.714.168.188.368.33.6.426a2.1 2.1 0 00.78.138c.268 0 .498-.03.69-.09a3.456 3.456 0 00.852-.402.47.47 0 01.246-.096c.088 0 .156.034.204.102l.3.39zm2.449-4.008c.192-.416.428-.74.708-.972.28-.236.622-.354 1.026-.354.128 0 .25.014.366.042.12.028.226.072.318.132l-.078.798c-.024.1-.084.15-.18.15-.056 0-.138-.012-.246-.036a1.694 1.694 0 00-.366-.036c-.192 0-.364.028-.516.084-.148.056-.282.14-.402.252a1.782 1.782 0 00-.318.408c-.092.16-.176.344-.252.552V9h-1.074V2.922h.612c.116 0 .196.022.24.066.044.044.074.12.09.228l.072.924zm7.367-.138a.477.477 0 01-.096.102.216.216 0 01-.132.036.365.365 0 01-.198-.072 2.74 2.74 0 00-.27-.168 1.91 1.91 0 00-.39-.162 1.76 1.76 0 00-.564-.078c-.3 0-.564.054-.792.162-.228.104-.42.256-.576.456a2.15 2.15 0 00-.348.726 3.692 3.692 0 00-.114.954c0 .368.042.696.126.984.084.284.202.524.354.72.156.192.342.34.558.444.22.1.466.15.738.15.26 0 .474-.03.642-.09.168-.064.306-.134.414-.21.112-.076.204-.144.276-.204a.35.35 0 01.222-.096c.088 0 .156.034.204.102l.3.39a2.128 2.128 0 01-.45.42c-.168.116-.35.214-.546.294a3.011 3.011 0 01-.606.168 3.864 3.864 0 01-.648.054c-.38 0-.734-.07-1.062-.21a2.44 2.44 0 01-.846-.606 2.885 2.885 0 01-.564-.984 3.997 3.997 0 01-.204-1.326c0-.452.062-.87.186-1.254.128-.384.312-.714.552-.99.244-.28.542-.498.894-.654a3.023 3.023 0 011.224-.234c.428 0 .804.07 1.128.21.328.136.618.33.87.582l-.282.384zm3.984-1.176a3.1 3.1 0 011.2.222c.356.148.66.358.912.63s.444.602.576.99c.136.384.204.814.204 1.29 0 .48-.068.912-.204 1.296a2.735 2.735 0 01-.576.984 2.572 2.572 0 01-.912.63 3.175 3.175 0 01-1.2.216c-.448 0-.852-.072-1.212-.216a2.572 2.572 0 01-.912-.63 2.805 2.805 0 01-.582-.984 3.972 3.972 0 01-.198-1.296c0-.476.066-.906.198-1.29.136-.388.33-.718.582-.99.252-.272.556-.482.912-.63.36-.148.764-.222 1.212-.222zm0 5.424c.6 0 1.048-.2 1.344-.6.296-.404.444-.966.444-1.686 0-.724-.148-1.288-.444-1.692-.296-.404-.744-.606-1.344-.606-.304 0-.57.052-.798.156a1.507 1.507 0 00-.564.45c-.148.196-.26.438-.336.726a3.941 3.941 0 00-.108.966c0 .72.148 1.282.444 1.686.3.4.754.6 1.362.6zm4.093.09a.8.8 0 01.054-.294.829.829 0 01.156-.24.77.77 0 01.534-.222.77.77 0 01.696.462c.04.092.06.19.06.294a.744.744 0 01-.222.534.692.692 0 01-.24.156.73.73 0 01-.294.06.73.73 0 01-.294-.06.692.692 0 01-.396-.39.816.816 0 01-.054-.3zm7.273-4.338a.477.477 0 01-.096.102.216.216 0 01-.132.036.365.365 0 01-.198-.072 2.74 2.74 0 00-.27-.168 1.91 1.91 0 00-.39-.162 1.76 1.76 0 00-.564-.078c-.3 0-.564.054-.792.162-.228.104-.42.256-.576.456a2.15 2.15 0 00-.348.726 3.692 3.692 0 00-.114.954c0 .368.042.696.126.984.084.284.202.524.354.72.156.192.342.34.558.444.22.1.466.15.738.15.26 0 .474-.03.642-.09.168-.064.306-.134.414-.21.112-.076.204-.144.276-.204a.35.35 0 01.222-.096c.088 0 .156.034.204.102l.3.39a2.128 2.128 0 01-.45.42c-.168.116-.35.214-.546.294a3.011 3.011 0 01-.606.168 3.864 3.864 0 01-.648.054c-.38 0-.734-.07-1.062-.21a2.44 2.44 0 01-.846-.606 2.885 2.885 0 01-.564-.984 3.997 3.997 0 01-.204-1.326c0-.452.062-.87.186-1.254.128-.384.312-.714.552-.99.244-.28.542-.498.894-.654a3.023 3.023 0 011.224-.234c.428 0 .804.07 1.128.21.328.136.618.33.87.582l-.282.384zm3.984-1.176a3.1 3.1 0 011.2.222c.356.148.66.358.912.63s.444.602.576.99c.136.384.204.814.204 1.29 0 .48-.068.912-.204 1.296a2.735 2.735 0 01-.576.984 2.572 2.572 0 01-.912.63 3.175 3.175 0 01-1.2.216c-.448 0-.852-.072-1.212-.216a2.572 2.572 0 01-.912-.63 2.805 2.805 0 01-.582-.984 3.972 3.972 0 01-.198-1.296c0-.476.066-.906.198-1.29.136-.388.33-.718.582-.99.252-.272.556-.482.912-.63.36-.148.764-.222 1.212-.222zm0 5.424c.6 0 1.048-.2 1.344-.6.296-.404.444-.966.444-1.686 0-.724-.148-1.288-.444-1.692-.296-.404-.744-.606-1.344-.606-.304 0-.57.052-.798.156a1.507 1.507 0 00-.564.45c-.148.196-.26.438-.336.726a3.941 3.941 0 00-.108.966c0 .72.148 1.282.444 1.686.3.4.754.6 1.362.6zm4.273.75V2.922h.642c.152 0 .246.074.282.222l.078.624c.224-.276.476-.502.756-.678.28-.176.604-.264.972-.264.408 0 .738.114.99.342.256.228.44.536.552.924.088-.22.2-.41.336-.57a1.987 1.987 0 011.014-.624c.196-.048.394-.072.594-.072.32 0 .604.052.852.156.252.1.464.248.636.444.176.196.31.438.402.726.092.284.138.61.138.978V9h-1.074V5.13c0-.476-.104-.836-.312-1.08-.208-.248-.508-.372-.9-.372-.176 0-.344.032-.504.096-.156.06-.294.15-.414.27-.12.12-.216.272-.288.456-.068.18-.102.39-.102.63V9h-1.074V5.13c0-.488-.098-.852-.294-1.092-.196-.24-.482-.36-.858-.36-.264 0-.508.072-.732.216a2.38 2.38 0 00-.618.576V9h-1.074zm9.714-.66a.8.8 0 01.054-.294.829.829 0 01.156-.24.77.77 0 01.534-.222.77.77 0 01.696.462c.04.092.06.19.06.294a.744.744 0 01-.222.534.692.692 0 01-.24.156.73.73 0 01-.294.06.73.73 0 01-.294-.06.692.692 0 01-.396-.39.816.816 0 01-.054-.3zm4.116-.804c.196.264.41.45.642.558.232.108.492.162.78.162.568 0 1.004-.202 1.308-.606.304-.404.456-.98.456-1.728 0-.396-.036-.736-.108-1.02a1.926 1.926 0 00-.3-.696 1.171 1.171 0 00-.486-.402 1.616 1.616 0 00-.654-.126c-.348 0-.654.08-.918.24-.26.16-.5.386-.72.678v2.94zm-.054-3.672c.256-.316.552-.57.888-.762a2.28 2.28 0 011.152-.288c.352 0 .67.068.954.204.284.132.526.33.726.594.2.26.354.584.462.972.108.388.162.834.162 1.338 0 .448-.06.866-.18 1.254-.12.384-.294.718-.522 1.002-.224.28-.5.502-.828.666-.324.16-.69.24-1.098.24-.372 0-.692-.062-.96-.186a2.301 2.301 0 01-.702-.528v2.688h-1.074V2.922h.642c.152 0 .246.074.282.222l.096.72zm9.802 1.434c0-.248-.036-.474-.108-.678a1.433 1.433 0 00-.306-.534 1.292 1.292 0 00-.486-.348 1.616 1.616 0 00-.654-.126c-.512 0-.918.15-1.218.45-.296.296-.48.708-.552 1.236h3.324zm.864 2.85c-.132.16-.29.3-.474.42a3.022 3.022 0 01-.594.288 3.516 3.516 0 01-.648.168c-.224.04-.446.06-.666.06-.42 0-.808-.07-1.164-.21a2.636 2.636 0 01-.918-.624 2.919 2.919 0 01-.6-1.02 4.135 4.135 0 01-.216-1.392c0-.424.064-.82.192-1.188.132-.368.32-.686.564-.954.244-.272.542-.484.894-.636a2.902 2.902 0 011.188-.234c.364 0 .7.062 1.008.186.312.12.58.296.804.528.228.228.406.512.534.852.128.336.192.72.192 1.152 0 .168-.018.28-.054.336-.036.056-.104.084-.204.084h-4.062c.012.384.064.718.156 1.002.096.284.228.522.396.714.168.188.368.33.6.426a2.1 2.1 0 00.78.138c.268 0 .498-.03.69-.09a3.481 3.481 0 00.852-.402.47.47 0 01.246-.096c.088 0 .156.034.204.102l.3.39z"/>
</svg>
